<svg width="407" height="230" viewBox="0 0 407 230" fill="none" xmlns="http://www.w3.org/2000/svg">
<path opacity="0.1" fill-rule="evenodd" clip-rule="evenodd" d="M1 154.591C1 154.591 16.9648 149.171 35.1158 162.192C69.6379 186.957 71.6073 141.606 84.4085 119.739C96.1201 99.733 105.82 111.939 118.86 136.405C128.477 154.45 142.494 184.74 157.009 179.864C170.278 175.406 179.684 139.88 198.076 130.846C212.653 123.685 224.499 143.357 241.284 136.405C264.055 126.975 274.226 71.4558 290.5 71.4558C310.586 71.4558 324.727 24.4998 343 24.4998C361.164 24.4998 363.63 52.1111 383.5 71.4558C398.691 86.2451 406 71.4558 406 71.4558V229.933H1V154.591Z" fill="url(#paint0_linear_18_89)"/>
<path d="M1 129.973C1 129.973 16.9648 124.631 35.1158 137.464C69.6379 161.87 71.6073 117.176 84.4085 95.6251C96.1201 75.9085 105.82 87.9383 118.86 112.05C128.477 129.834 142.494 159.685 157.009 154.879C170.278 150.487 179.684 115.475 198.076 106.571C212.653 99.5137 224.499 118.901 241.284 112.05C264.055 102.756 274.226 48.0407 290.5 48.0407C310.586 48.0407 324.727 1.65247 343 1.65247C361.164 1.65247 362.13 28.9759 382 48.0407C397.191 62.6158 406 48.0407 406 48.0407" stroke="#1B59F8" stroke-width="1.84723" stroke-linecap="round" stroke-linejoin="round"/>
<defs>
<linearGradient id="paint0_linear_18_89" x1="74.194" y1="128.738" x2="74.194" y2="229.933" gradientUnits="userSpaceOnUse">
<stop stop-color="#0062FF"/>
<stop offset="1" stop-color="white" stop-opacity="0.01"/>
</linearGradient>
</defs>
</svg>
